<svg xmlns="http://www.w3.org/2000/svg" width="20.656" height="23.607" viewBox="0 0 20.656 23.607"><path d="M10.328,23.607a2.95,2.95,0,0,0,2.949-2.951h-5.9A2.95,2.95,0,0,0,10.328,23.607Zm9.931-6.9c-.891-.957-2.558-2.4-2.558-7.114a7.281,7.281,0,0,0-5.9-7.154V1.475a1.475,1.475,0,1,0-2.949,0v.961a7.281,7.281,0,0,0-5.9,7.154c0,4.717-1.667,6.157-2.558,7.114a1.441,1.441,0,0,0-.4,1A1.477,1.477,0,0,0,1.48,19.18h17.7a1.476,1.476,0,0,0,1.48-1.475,1.44,1.44,0,0,0-.4-1Z" transform="translate(0)" fill="#4a31c1"/></svg>