<svg xmlns="http://www.w3.org/2000/svg" width="26.563" height="23.607" viewBox="0 0 26.563 23.607"><path d="M18.566,3.839,22.726,8a.451.451,0,0,1,0,.636L12.654,18.707l-4.28.475a.9.9,0,0,1-.991-.991l.475-4.28L17.93,3.839A.451.451,0,0,1,18.566,3.839Zm7.471-1.056L23.787.533a1.8,1.8,0,0,0-2.546,0L19.608,2.165a.451.451,0,0,0,0,.636l4.16,4.16a.451.451,0,0,0,.636,0l1.633-1.633a1.8,1.8,0,0,0,0-2.546ZM17.709,15.968v4.695H2.951V5.905h10.6a.567.567,0,0,0,.392-.161L15.785,3.9a.553.553,0,0,0-.392-.945H2.214A2.214,2.214,0,0,0,0,5.167V21.4a2.214,2.214,0,0,0,2.214,2.214H18.446A2.214,2.214,0,0,0,20.66,21.4V14.123a.554.554,0,0,0-.945-.392L17.87,15.576A.567.567,0,0,0,17.709,15.968Z" transform="translate(0 -0.007)" fill="#4a31c1"/></svg>