<svg xmlns="http://www.w3.org/2000/svg" width="26.055" height="22.84" viewBox="0 0 26.055 22.84">
  <path id="Icon_map-food" data-name="Icon map-food" d="M26.717,8.921,24.581,25.664H17.367L15.24,8.837h8.808l1.741-6.013.987.3L25.1,8.908l1.613.012Zm-12.5,9.687s.27-2.171-3.471-2.171H4.791c-3.736,0-3.471,2.171-3.471,2.171h12.9Zm-12.9,4.885s-.264,2.171,3.471,2.171h5.958c3.741,0,3.471-2.171,3.471-2.171H1.319ZM13.66,22.408a1.248,1.248,0,0,0,1.107-1.356,1.247,1.247,0,0,0-1.107-1.358H1.827A1.249,1.249,0,0,0,.72,21.051a1.251,1.251,0,0,0,1.107,1.356H13.66Z" transform="translate(-0.72 -2.825)" fill="#4a31c1"/>
</svg>
