<svg xmlns="http://www.w3.org/2000/svg" width="28.028" height="40.917" viewBox="0 0 28.028 40.917">
  <path id="Path_53" data-name="Path 53" d="M226.082,195.653a14.9,14.9,0,0,1-6.36-1.238v2.026a1.879,1.879,0,0,0,1.688,2.026l10.018,1.857a32.686,32.686,0,0,1,5.065,1.379,7.942,7.942,0,0,1,3.433,2.308,6.107,6.107,0,0,1,1.238,4.024,8.169,8.169,0,0,1-1.773,5.037,12.281,12.281,0,0,1-5.234,3.771,22.653,22.653,0,0,1-8.639,1.435,21.737,21.737,0,0,1-7.063-.928,7.934,7.934,0,0,1-3.743-2.392,5.067,5.067,0,0,1-1.126-3.152,7.157,7.157,0,0,1,1.379-4.052,11.622,11.622,0,0,1,3.574-3.377q-3.433-1.294-3.433-4.109a3.953,3.953,0,0,1,.506-1.97,12.915,12.915,0,0,1,1.238-1.8l2.026-2.533a7.933,7.933,0,0,1-4.053-7.373,8.4,8.4,0,0,1,2.9-6.641q2.9-2.532,8.358-2.532t8.442,2.532a15.878,15.878,0,0,0,3.377-.9,11.413,11.413,0,0,0,2.927-1.688l.788.562v3.152h-6.078a8.554,8.554,0,0,1,1.8,5.516,8.272,8.272,0,0,1-2.9,6.529Q231.54,195.653,226.082,195.653Zm-8.1,14.521a5.542,5.542,0,0,0,1.97,4.643q1.969,1.548,6.247,1.548,4.728,0,7.007-1.548a4.728,4.728,0,0,0,2.28-4.08,2.969,2.969,0,0,0-1.154-2.476,9.223,9.223,0,0,0-3.856-1.407l-10.074-1.97-.45-.113a10.633,10.633,0,0,0-1.407,2.589A7.823,7.823,0,0,0,217.977,210.174Zm7.992-16.04a3.742,3.742,0,0,0,3.462-1.829q1.1-1.828,1.1-5.881,0-4-1.069-5.741a3.621,3.621,0,0,0-3.321-1.745,3.669,3.669,0,0,0-3.349,1.773q-1.1,1.773-1.1,5.825t1.013,5.825A3.476,3.476,0,0,0,225.969,194.134Z" transform="translate(-213.587 -177.362)" fill="#4a31c1"/>
</svg>
