<svg xmlns="http://www.w3.org/2000/svg" viewBox="0 0 572.82617 155.28325"><defs><style>.cls-1{fill:#4a31c1;}.cls-2{fill:#dba74c;}</style></defs><g id="Layer_2" data-name="Layer 2"><g id="Layer_1-2" data-name="Layer 1"><path class="cls-1" d="M35.45264,84.79883q-10.53956,0-18.0459-3.5127v5.749q0,4.79,4.791,5.749L50.624,98.05371a92.83278,92.83278,0,0,1,14.37256,3.91309,22.53529,22.53529,0,0,1,9.7417,6.54785q3.51123,4.23193,3.51318,11.418a23.1815,23.1815,0,0,1-5.03027,14.293q-5.03027,6.62548-14.85205,10.69921-9.821,4.07227-24.51318,4.07227-12.61743,0-20.042-2.63477-7.426-2.63524-10.62011-6.7871A14.37948,14.37948,0,0,1,0,130.63184a20.31223,20.31223,0,0,1,3.9126-11.49805,32.98277,32.98277,0,0,1,10.14062-9.58106Q4.31056,105.88037,4.312,97.89453a11.21613,11.21613,0,0,1,1.437-5.58984,36.65919,36.65919,0,0,1,3.51319-5.11035l5.74951-7.18653Q3.51343,73.30176,3.51318,59.08789q0-11.65577,8.22461-18.84473,8.22291-7.18506,23.71485-7.18554,15.48852,0,23.95459,7.18554a45.07234,45.07234,0,0,0,9.582-2.55468,32.38284,32.38284,0,0,0,8.3042-4.791l2.23584,1.59668V43.4375H62.28174a24.27067,24.27067,0,0,1,5.11035,15.65039A23.47213,23.47213,0,0,1,59.168,77.61328Q50.94068,84.79834,35.45264,84.79883ZM12.45654,126.001q0,8.78173,5.58936,13.1748,5.58765,4.39161,17.72607,4.3916,13.415,0,19.88233-4.3916,6.468-4.39307,6.46777-11.57812a8.42564,8.42564,0,0,0-3.27344-7.02637q-3.27538-2.55615-10.93945-3.99219l-28.58594-5.58984c-.42676-.10449-.85351-.21192-1.27734-.31934a30.166,30.166,0,0,0-3.99268,7.34668A22.1858,22.1858,0,0,0,12.45654,126.001ZM35.1333,80.4873q6.70752,0,9.82129-5.19042,3.11425-5.187,3.11426-16.68848,0-11.33643-3.03418-16.28906-3.0359-4.94824-9.42237-4.9502-6.3889,0-9.50195,5.03027-3.11426,5.03028-3.11377,16.52832,0,11.499,2.87451,16.5293Q28.74512,80.48731,35.1333,80.4873Z"/><path class="cls-1" d="M85.11719,112.10742v-3.03418l2.39551-.79883a6.8359,6.8359,0,0,0,4.3916-2.71484,9.54731,9.54731,0,0,0,1.19775-5.11035V53.6582a11.45972,11.45972,0,0,0-1.27734-5.34961q-1.11915-1.834-4.312-2.47558l-2.39551-.63867v-2.875L111.148,33.05762l1.9165,1.75586,1.437,14.05371v1.11816a37.72114,37.72114,0,0,1,6.06885-8.30469,33.75931,33.75931,0,0,1,7.98487-6.22754,17.61275,17.61275,0,0,1,8.62353-2.3955q6.06738,0,9.10254,3.19336a11.35833,11.35833,0,0,1,3.03418,8.14453q0,5.43163-3.03418,8.22461a10.45031,10.45031,0,0,1-7.3457,2.79492q-6.38966,0-11.01953-5.749l-.31934-.31934a5.53207,5.53207,0,0,0-3.59326-2.15625q-1.99878-.23877-3.9126,1.99609a21.31621,21.31621,0,0,0-2.9541,3.75293,29.37007,29.37007,0,0,0-2.47559,5.03028V99.81055a9.146,9.146,0,0,0,1.27783,5.03027,6.91982,6.91982,0,0,0,4.31153,2.79492l4.791,1.4375v3.03418Z"/><path class="cls-1" d="M183.17139,114.34277a27.17991,27.17991,0,0,1-11.33838-2.31543,17.22155,17.22155,0,0,1-8.06494-7.665q-2.95678-5.3496-2.79444-14.13378l.479-40.084a9.10736,9.10736,0,0,0-1.11817-5.11035,6.32719,6.32719,0,0,0-3.99218-2.23535l-1.91651-.63867v-2.875l27.30811-5.26954,1.75683,1.75684-.79834,22.5166V94.541q0,5.43016,2.9541,7.90429a11.15518,11.15518,0,0,0,7.42627,2.47559,24.48747,24.48747,0,0,0,8.38379-1.35742,35.09712,35.09712,0,0,0,7.74561-4.07227l.479-49.18652q0-3.67236-1.03808-5.11035a6.99638,6.99638,0,0,0-3.9126-2.23633l-1.75684-.47852v-2.875l26.66944-5.58887,1.75683,1.75684-.479,22.5166v41.84082a13.4824,13.4824,0,0,0,.87842,5.35059q.876,1.998,3.91259,2.9541l2.07618.63867v3.03418l-26.98926,1.59668-1.437-10.06055a53.44923,53.44923,0,0,1-11.81787,7.665A33.111,33.111,0,0,1,183.17139,114.34277Z"/><path class="cls-1" d="M270.84424,114.18359l-26.19043-2.07617v-3.03418l1.59717-.31933q6.22851-1.437,6.228-7.98536v-83.042a8.72815,8.72815,0,0,0-1.19775-4.95117,7.19144,7.19144,0,0,0-4.3916-2.55469l-2.07617-.47949v-2.874L272.12207,0l2.07568,1.4375-.63867,22.5166V40.72266a42.79134,42.79134,0,0,1,24.43311-7.665,28.49566,28.49566,0,0,1,22.19824,9.82129q8.78174,9.82031,8.7832,30.26269,0,13.57472-4.47168,22.75684a32.29725,32.29725,0,0,1-11.97656,13.81347,31.01665,31.01665,0,0,1-16.6084,4.63086,46.64256,46.64256,0,0,1-12.05713-1.59668,31.91257,31.91257,0,0,1-10.62011-4.95019Zm17.56689-6.86718a14.88042,14.88042,0,0,0,9.26172-3.03418q3.99024-3.03223,6.22852-10.37989,2.23534-7.34472,2.23633-20.12207,0-12.7749-2.07618-19.96191-2.07714-7.18653-5.98925-10.06152a15.34982,15.34982,0,0,0-9.3418-2.874,30.25627,30.25627,0,0,0-14.69238,4.15137v58.29A27.076,27.076,0,0,0,288.41113,107.31641Z"/><path class="cls-1" d="M362.03125,114.18359l-26.19043-2.07617v-3.03418l1.59668-.31933q6.22851-1.437,6.22852-7.98536v-83.042a8.728,8.728,0,0,0-1.19825-4.95117,7.18852,7.18852,0,0,0-4.3916-2.55469L336,9.74121v-2.874L363.30859,0l2.07618,1.4375-.63868,22.5166V40.72266a42.78945,42.78945,0,0,1,24.4336-7.665,28.49566,28.49566,0,0,1,22.19824,9.82129q8.78028,9.82031,8.7832,30.26269,0,13.57472-4.47168,22.75684a32.29915,32.29915,0,0,1-11.97754,13.81347,31.01419,31.01419,0,0,1-16.60839,4.63086,46.64712,46.64712,0,0,1-12.05664-1.59668,31.908,31.908,0,0,1-10.62012-4.95019Zm17.56641-6.86718a14.88122,14.88122,0,0,0,9.26269-3.03418q3.99024-3.03223,6.22852-10.37989,2.23388-7.34472,2.23535-20.12207,0-12.7749-2.07617-19.96191-2.07716-7.18653-5.98828-10.06152a15.35478,15.35478,0,0,0-9.34278-2.874,30.25777,30.25777,0,0,0-14.69238,4.15137v58.29A27.076,27.076,0,0,0,379.59766,107.31641Z"/><path class="cls-1" d="M468.22656,33.05762q10.06054,0,17.24707,4.15136a28.65051,28.65051,0,0,1,11.09864,11.419,34.655,34.655,0,0,1,3.91308,16.68848q0,2.07714-.16015,3.91211a17.03639,17.03639,0,0,1-.63868,3.43359H451.61816q.15675,16.4502,6.14844,23.63574,5.98828,7.18506,17.48633,7.18555,7.98341,0,12.93555-2.63477a31.99774,31.99774,0,0,0,9.10254-7.42578l2.55566,2.39551a34.95879,34.95879,0,0,1-13.01563,13.6543q-8.22656,4.86913-19.5625,4.87011a40.43285,40.43285,0,0,1-19.96289-4.79,33.74066,33.74066,0,0,1-13.49414-13.81445q-4.87353-9.02051-4.87011-21.63867,0-13.09278,5.66894-22.19824a38.88209,38.88209,0,0,1,14.69238-13.97364A39.29473,39.29473,0,0,1,468.22656,33.05762Zm-.79883,4.63086a12.86032,12.86032,0,0,0-8.06445,2.63476q-3.43651,2.63526-5.42969,9.2627-1.9995,6.62841-2.31543,18.60449H480.2041Q481.959,52.0625,478.92578,44.875,475.89062,37.68847,467.42773,37.68848Z"/><path class="cls-1" d="M508.62793,112.10742v-3.03418l2.39551-.79883a6.8333,6.8333,0,0,0,4.3916-2.71484,9.54709,9.54709,0,0,0,1.19824-5.11035V53.6582a11.47171,11.47171,0,0,0-1.27734-5.34961q-1.11915-1.834-4.3125-2.47558l-2.39551-.63867v-2.875l26.03125-9.26172,1.916,1.75586,1.4375,14.05371v1.11816a37.71874,37.71874,0,0,1,6.06835-8.30469,33.76183,33.76183,0,0,1,7.98536-6.22754,17.611,17.611,0,0,1,8.623-2.3955q6.0674,0,9.10254,3.19336a11.35829,11.35829,0,0,1,3.03418,8.14453q0,5.43163-3.03418,8.22461a10.44947,10.44947,0,0,1-7.3457,2.79492q-6.38966,0-11.01953-5.749l-.31934-.31934a5.53109,5.53109,0,0,0-3.59277-2.15625q-1.99951-.23877-3.91309,1.99609a21.31621,21.31621,0,0,0-2.9541,3.75293,29.44141,29.44141,0,0,0-2.47558,5.03028V99.81055a9.146,9.146,0,0,0,1.27832,5.03027,6.91977,6.91977,0,0,0,4.31152,2.79492l4.791,1.4375v3.03418Z"/><path class="cls-2" d="M190.95557,143.38871a2.57539,2.57539,0,0,0-.98877-2.168,11.89626,11.89626,0,0,0-3.5669-1.53809,17.224,17.224,0,0,1-4.10156-1.72852,5.47327,5.47327,0,0,1-2.915-4.77539,5.19692,5.19692,0,0,1,2.10205-4.248,8.50789,8.50789,0,0,1,5.45654-1.66993,9.21669,9.21669,0,0,1,3.96973.82032,6.52142,6.52142,0,0,1,2.73926,2.33593,5.99648,5.99648,0,0,1,.99609,3.36231h-3.6914a3.3397,3.3397,0,0,0-1.04737-2.61426,4.318,4.318,0,0,0-2.9956-.94531,4.51492,4.51492,0,0,0-2.81983.77637,2.58523,2.58523,0,0,0-1.00341,2.168,2.33935,2.33935,0,0,0,1.084,1.95606,12.488,12.488,0,0,0,3.57422,1.52344,16.48113,16.48113,0,0,1,3.999,1.68359,6.37759,6.37759,0,0,1,2.21192,2.168,5.65054,5.65054,0,0,1,.70312,2.86426,5.07664,5.07664,0,0,1-2.04346,4.24121,8.86348,8.86348,0,0,1-5.54443,1.57422,10.403,10.403,0,0,1-4.25537-.85743,7.13977,7.13977,0,0,1-3.01758-2.36523,5.89549,5.89549,0,0,1-1.07666-3.51562h3.70606a3.44963,3.44963,0,0,0,1.20117,2.8125,5.26019,5.26019,0,0,0,3.44238.99609,4.5704,4.5704,0,0,0,2.90772-.7832A2.52949,2.52949,0,0,0,190.95557,143.38871Z"/><path class="cls-2" d="M202.02979,129.17973v3.85254h2.79785V135.669h-2.79785v8.84765a1.94529,1.94529,0,0,0,.35888,1.31055,1.66035,1.66035,0,0,0,1.28174.40332,5.48374,5.48374,0,0,0,1.24512-.14648v2.7539a8.7668,8.7668,0,0,1-2.34375.33692q-4.10157,0-4.10157-4.52637V135.669h-2.60742v-2.63672h2.60742v-3.85254Z"/><path class="cls-2" d="M217.01514,148.88188a5.49364,5.49364,0,0,1-.41016-1.47949,5.98779,5.98779,0,0,1-8.05664.41015,4.35861,4.35861,0,0,1-1.50879-3.36914,4.50262,4.50262,0,0,1,1.88233-3.88965,9.12922,9.12922,0,0,1,5.3833-1.35449h2.18261v-1.04a2.77911,2.77911,0,0,0-.68847-1.9707,2.73267,2.73267,0,0,0-2.09473-.73926,3.13561,3.13561,0,0,0-1.99219.6084,1.88071,1.88071,0,0,0-.77636,1.54492h-3.55958a3.954,3.954,0,0,1,.86426-2.43945,5.76527,5.76527,0,0,1,2.35108-1.7793,8.2582,8.2582,0,0,1,3.31787-.64453,6.65549,6.65549,0,0,1,4.43847,1.39844,4.9911,4.9911,0,0,1,1.69922,3.93359v7.14844a8.10143,8.10143,0,0,0,.60059,3.41308v.249ZM213.104,146.3184a4.04915,4.04915,0,0,0,1.98487-.51269,3.42533,3.42533,0,0,0,1.39892-1.377v-2.98828h-1.91894a5.24707,5.24707,0,0,0-2.97364.68848,2.23026,2.23026,0,0,0-.99609,1.94824,2.07771,2.07771,0,0,0,.68115,1.63281A2.63321,2.63321,0,0,0,213.104,146.3184Z"/><path class="cls-2" d="M229.31982,143.78422l3.22266-10.75195h3.79395l-6.29883,18.25195q-1.4502,3.999-4.92188,3.999a6.342,6.342,0,0,1-1.71386-.26465V152.251l.67382.04394a3.47129,3.47129,0,0,0,2.02881-.49023,3.25258,3.25258,0,0,0,1.07666-1.64648l.5127-1.36133-5.56641-15.76465h3.83789Z"/><path class="cls-2" d="M252.36182,146.333a3.21841,3.21841,0,0,0,2.21191-.77637,2.65229,2.65229,0,0,0,.9375-1.91894h3.35449a5.23011,5.23011,0,0,1-.92285,2.76172,6.0521,6.0521,0,0,1-2.34375,2.02832,6.98459,6.98459,0,0,1-3.19336.74707,6.75761,6.75761,0,0,1-5.27344-2.15332,8.54079,8.54079,0,0,1-1.94824-5.94727V140.708a8.39569,8.39569,0,0,1,1.9336-5.793,6.69338,6.69338,0,0,1,5.27343-2.17578,6.508,6.508,0,0,1,4.60694,1.64844,5.90023,5.90023,0,0,1,1.86767,4.32812h-3.35449a3.25956,3.25956,0,0,0-.93018-2.24121,2.9928,2.9928,0,0,0-2.21923-.8789,3.13038,3.13038,0,0,0-2.666,1.25292,6.3871,6.3871,0,0,0-.95215,3.80079v.57129a6.493,6.493,0,0,0,.93018,3.84472A3.12766,3.12766,0,0,0,252.36182,146.333Z"/><path class="cls-2" d="M260.88721,140.81059a9.34063,9.34063,0,0,1,.92285-4.19629,6.73437,6.73437,0,0,1,2.59277-2.87109,7.30556,7.30556,0,0,1,3.83789-1.00391,6.92317,6.92317,0,0,1,5.20752,2.06543,8.12375,8.12375,0,0,1,2.16065,5.47852l.01465.835a9.42943,9.42943,0,0,1-.90088,4.18945,6.6589,6.6589,0,0,1-2.57813,2.85644,7.359,7.359,0,0,1-3.87451,1.01075,6.87244,6.87244,0,0,1-5.36865-2.23438,8.55271,8.55271,0,0,1-2.01416-5.9541Zm3.55957.30762a6.38279,6.38279,0,0,0,1.01074,3.83007A3.2838,3.2838,0,0,0,268.27,146.333a3.25005,3.25005,0,0,0,2.80518-1.40625,7.054,7.054,0,0,0,1.00341-4.11621,6.30411,6.30411,0,0,0-1.03271-3.80859,3.48126,3.48126,0,0,0-5.57373-.02247A6.92431,6.92431,0,0,0,264.44678,141.11821Z"/><path class="cls-2" d="M281.937,133.03227l.10254,1.831a5.69883,5.69883,0,0,1,4.61426-2.124q4.95043,0,5.03857,5.669v10.47363H288.1333V138.61332a3.26084,3.26084,0,0,0-.65185-2.2334,2.73858,2.73858,0,0,0-2.13135-.72558,3.42994,3.42994,0,0,0-3.208,1.94824v11.2793h-3.55957V133.03227Z"/><path class="cls-2" d="M298.62109,133.03227l.10254,1.831a5.69883,5.69883,0,0,1,4.61426-2.124q4.95117,0,5.03906,5.669v10.47363h-3.55957V138.61332a3.26085,3.26085,0,0,0-.65136-2.2334,2.73976,2.73976,0,0,0-2.13184-.72558,3.43,3.43,0,0,0-3.208,1.94824v11.2793H295.2666V133.03227Z"/><path class="cls-2" d="M318.98242,149.17485a7.36661,7.36661,0,0,1-5.48535-2.13086,7.73466,7.73466,0,0,1-2.10254-5.67676v-.43945a9.51579,9.51579,0,0,1,.916-4.24121,6.97164,6.97164,0,0,1,2.57031-2.90723,6.79646,6.79646,0,0,1,3.69141-1.04,6.222,6.222,0,0,1,5.00293,2.06543,8.73369,8.73369,0,0,1,1.76464,5.84473V142.085H314.9834a4.76012,4.76012,0,0,0,1.31152,3.10547,3.935,3.935,0,0,0,2.89258,1.14258,4.81991,4.81991,0,0,0,3.98438-1.97754l1.91894,1.83106a6.40793,6.40793,0,0,1-2.541,2.20507A7.97151,7.97151,0,0,1,318.98242,149.17485Zm-.4248-13.5791a2.99646,2.99646,0,0,0-2.36524,1.02539,5.31508,5.31508,0,0,0-1.15039,2.85644h6.78223v-.26367a4.33031,4.33031,0,0,0-.95215-2.70313A2.97772,2.97772,0,0,0,318.55762,135.59575Z"/><path class="cls-2" d="M334.6123,146.333a3.21841,3.21841,0,0,0,2.21192-.77637,2.65229,2.65229,0,0,0,.9375-1.91894h3.35449a5.23011,5.23011,0,0,1-.92285,2.76172,6.0521,6.0521,0,0,1-2.34375,2.02832,6.98459,6.98459,0,0,1-3.19336.74707,6.75761,6.75761,0,0,1-5.27344-2.15332,8.54075,8.54075,0,0,1-1.94824-5.94727V140.708a8.39573,8.39573,0,0,1,1.93359-5.793,6.69342,6.69342,0,0,1,5.27344-2.17578,6.50916,6.50916,0,0,1,4.60742,1.64844,5.8998,5.8998,0,0,1,1.86719,4.32812h-3.35449a3.25914,3.25914,0,0,0-.92969-2.24121,2.99393,2.99393,0,0,0-2.21973-.8789,3.13038,3.13038,0,0,0-2.666,1.25292,6.3871,6.3871,0,0,0-.95215,3.80079v.57129a6.49283,6.49283,0,0,0,.93066,3.84472A3.12677,3.12677,0,0,0,334.6123,146.333Z"/><path class="cls-2" d="M348.26465,129.17973v3.85254h2.79785V135.669h-2.79785v8.84765a1.94522,1.94522,0,0,0,.35937,1.31055,1.65911,1.65911,0,0,0,1.28125.40332,5.48374,5.48374,0,0,0,1.24512-.14648v2.7539a8.7668,8.7668,0,0,1-2.34375.33692q-4.10156,0-4.10156-4.52637V135.669h-2.60742v-2.63672h2.60742v-3.85254Z"/><path class="cls-2" d="M360.75977,149.17485a7.36664,7.36664,0,0,1-5.48536-2.13086,7.73469,7.73469,0,0,1-2.10253-5.67676v-.43945a9.51578,9.51578,0,0,1,.916-4.24121,6.97171,6.97171,0,0,1,2.57031-2.90723,6.79649,6.79649,0,0,1,3.69141-1.04,6.222,6.222,0,0,1,5.00293,2.06543,8.73364,8.73364,0,0,1,1.76465,5.84473V142.085H356.76074a4.76008,4.76008,0,0,0,1.31153,3.10547,3.935,3.935,0,0,0,2.89257,1.14258,4.81989,4.81989,0,0,0,3.98438-1.97754l1.91894,1.83106a6.4079,6.4079,0,0,1-2.541,2.20507A7.97154,7.97154,0,0,1,360.75977,149.17485Zm-.42481-13.5791a2.99644,2.99644,0,0,0-2.36523,1.02539,5.31492,5.31492,0,0,0-1.15039,2.85644h6.78222v-.26367a4.33025,4.33025,0,0,0-.95215-2.70313A2.97772,2.97772,0,0,0,360.335,135.59575Z"/><path class="cls-2" d="M369.21191,140.83989a9.4265,9.4265,0,0,1,1.69922-5.88184,5.44656,5.44656,0,0,1,4.55567-2.21875,5.1732,5.1732,0,0,1,4.07226,1.75781v-8.11523h3.55957v22.5H379.876l-.17578-1.64063a5.24722,5.24722,0,0,1-4.2627,1.9336,5.41306,5.41306,0,0,1-4.50391-2.24121A9.768,9.768,0,0,1,369.21191,140.83989Zm3.55957.30761a6.59345,6.59345,0,0,0,.93067,3.77149,3.01559,3.01559,0,0,0,2.64355,1.35547,3.36166,3.36166,0,0,0,3.19336-1.94825v-6.76757a3.31051,3.31051,0,0,0-3.16406-1.9043,3.04084,3.04084,0,0,0-2.666,1.37012A7.34536,7.34536,0,0,0,372.77148,141.1475Z"/><path class="cls-2" d="M387.31738,153.68657l-1.91894-1.14258a10.33734,10.33734,0,0,0,1.165-2.32227,6.91913,6.91913,0,0,0,.3291-2.01367V145.4395h3.208l-.01465,2.56347a7.14909,7.14909,0,0,1-.78321,3.11328A7.7418,7.7418,0,0,1,387.31738,153.68657Z"/><path class="cls-2" d="M404.17773,133.03227l.10254,1.831a5.69883,5.69883,0,0,1,4.61426-2.124q4.95117,0,5.03906,5.669v10.47363H410.374V138.61332a3.26085,3.26085,0,0,0-.65136-2.2334,2.73976,2.73976,0,0,0-2.13184-.72558,3.43,3.43,0,0,0-3.208,1.94824v11.2793h-3.55957V133.03227Z"/><path class="cls-2" d="M416.89258,140.81059a9.34076,9.34076,0,0,1,.92285-4.19629,6.73437,6.73437,0,0,1,2.59277-2.87109,7.30556,7.30556,0,0,1,3.83789-1.00391,6.92426,6.92426,0,0,1,5.208,2.06543,8.12337,8.12337,0,0,1,2.16016,5.47852l.01465.835a9.42928,9.42928,0,0,1-.90039,4.18945,6.659,6.659,0,0,1-2.57813,2.85644,7.36071,7.36071,0,0,1-3.875,1.01075,6.8714,6.8714,0,0,1-5.36816-2.23438,8.55294,8.55294,0,0,1-2.01465-5.9541Zm3.55957.30762a6.38279,6.38279,0,0,0,1.01074,3.83007,3.2838,3.2838,0,0,0,2.8125,1.38477,3.25088,3.25088,0,0,0,2.80566-1.40625,7.05407,7.05407,0,0,0,1.00293-4.11621,6.30415,6.30415,0,0,0-1.03222-3.80859,3.48175,3.48175,0,0,0-5.57422-.02247A6.92438,6.92438,0,0,0,420.45215,141.11821Z"/><path class="cls-2" d="M439.09961,129.17973v3.85254h2.79785V135.669h-2.79785v8.84765a1.94522,1.94522,0,0,0,.35937,1.31055,1.65911,1.65911,0,0,0,1.28125.40332,5.48374,5.48374,0,0,0,1.24512-.14648v2.7539a8.7668,8.7668,0,0,1-2.34375.33692q-4.10155,0-4.10156-4.52637V135.669h-2.60742v-2.63672H435.54v-3.85254Z"/><path class="cls-2" d="M455.59375,134.76078a5.57155,5.57155,0,0,1,4.40918-2.02148q5.06837,0,5.1416,5.78613v10.35645H461.585V138.65727a3.13255,3.13255,0,0,0-.71-2.32227,2.90982,2.90982,0,0,0-2.08789-.68066,3.4288,3.4288,0,0,0-3.19336,1.9043v11.32324h-3.55957v-22.5h3.55957Z"/><path class="cls-2" d="M478.34277,147.32914a5.52053,5.52053,0,0,1-4.45312,1.84571,4.91911,4.91911,0,0,1-3.90332-1.50879,6.41856,6.41856,0,0,1-1.32617-4.36524V133.03227h3.55957v10.22461q0,3.01758,2.50488,3.01758a3.51785,3.51785,0,0,0,3.501-1.86036V133.03227h3.55957v15.84961h-3.3545Z"/><path class="cls-2" d="M488.71387,133.03227l.10254,1.831a5.69881,5.69881,0,0,1,4.61425-2.124q4.95119,0,5.03907,5.669v10.47363h-3.55957V138.61332a3.26085,3.26085,0,0,0-.65137-2.2334,2.73976,2.73976,0,0,0-2.13184-.72558,3.42993,3.42993,0,0,0-3.208,1.94824v11.2793h-3.55957V133.03227Z"/><path class="cls-2" d="M501.47266,140.83989a9.26835,9.26835,0,0,1,1.73632-5.89551,5.57083,5.57083,0,0,1,4.60645-2.20508,5.21928,5.21928,0,0,1,4.26269,1.88965l.16114-1.59668h3.208v15.36621a6.38652,6.38652,0,0,1-1.94043,4.92187,7.394,7.394,0,0,1-5.23731,1.80176,8.45413,8.45413,0,0,1-3.40527-.72461A6.06216,6.06216,0,0,1,502.33691,152.5l1.68457-2.13867a5.08762,5.08762,0,0,0,4.043,1.94824,3.93607,3.93607,0,0,0,2.79785-.959,3.67958,3.67958,0,0,0,1.0254-2.82031V147.461a5.2407,5.2407,0,0,1-4.10157,1.71387,5.55711,5.55711,0,0,1-4.54785-2.21192A9.57027,9.57027,0,0,1,501.47266,140.83989Zm3.54492.30761a6.38263,6.38263,0,0,0,.97461,3.75782,3.1311,3.1311,0,0,0,2.70215,1.36914,3.42561,3.42561,0,0,0,3.19336-1.84571V137.4561a3.3764,3.3764,0,0,0-3.16407-1.80176,3.14372,3.14372,0,0,0-2.73144,1.3916A7.1446,7.1446,0,0,0,505.01758,141.1475Z"/><path class="cls-2" d="M527.40039,136.28422a8.809,8.809,0,0,0-1.45019-.11719,3.26517,3.26517,0,0,0-3.2959,1.875v10.83985h-3.55957V133.03227h3.39843l.08789,1.77246a4.01062,4.01062,0,0,1,3.57422-2.06543,3.33229,3.33229,0,0,1,1.25977.20508Z"/><path class="cls-2" d="M535.19336,143.78422l3.22266-10.75195H542.21l-6.29883,18.25195q-1.45018,3.999-4.92187,3.999a6.3421,6.3421,0,0,1-1.71387-.26465V152.251l.67383.04394a3.473,3.473,0,0,0,2.0293-.49023,3.25212,3.25212,0,0,0,1.07617-1.64648l.51269-1.36133-5.5664-15.76465h3.83789Z"/><path class="cls-2" d="M546.47266,145.13188a2.03356,2.03356,0,0,1,1.53808.56445,1.95768,1.95768,0,0,1,.542,1.41309,1.88748,1.88748,0,0,1-.542,1.38379,2.39865,2.39865,0,0,1-3.04687.00781,1.85757,1.85757,0,0,1-.55664-1.3916,1.95768,1.95768,0,0,1,.542-1.41309A2.01381,2.01381,0,0,1,546.47266,145.13188Z"/></g></g></svg>