<svg xmlns="http://www.w3.org/2000/svg" width="572.826" height="155.283" viewBox="0 0 572.826 155.283">
  <g id="Group_22" data-name="Group 22" transform="translate(-213.587 -141.321)">
    <g id="Group_20" data-name="Group 20">
      <path id="Path_11" data-name="Path 11" d="M249.04,226.12q-10.54,0-18.046-3.513v5.749q0,4.791,4.791,5.749l28.426,5.27a92.743,92.743,0,0,1,14.372,3.913,22.535,22.535,0,0,1,9.742,6.548q3.511,4.231,3.513,11.418a23.179,23.179,0,0,1-5.03,14.293q-5.03,6.625-14.852,10.7t-24.513,4.072q-12.618,0-20.042-2.635t-10.62-6.787a14.377,14.377,0,0,1-3.194-8.943,20.308,20.308,0,0,1,3.913-11.5,32.978,32.978,0,0,1,10.14-9.581Q217.9,247.2,217.9,239.216a11.215,11.215,0,0,1,1.437-5.59,36.639,36.639,0,0,1,3.513-5.11l5.75-7.187q-11.5-6.706-11.5-20.92,0-11.655,8.225-18.845t23.715-7.185q15.487,0,23.954,7.185a45.052,45.052,0,0,0,9.582-2.554,32.384,32.384,0,0,0,8.3-4.791l2.236,1.6v8.944H275.869a24.269,24.269,0,0,1,5.11,15.65,23.47,23.47,0,0,1-8.224,18.525Q264.527,226.119,249.04,226.12Zm-23,41.2q0,8.783,5.59,13.175t17.726,4.392q13.415,0,19.882-4.392t6.468-11.578a8.429,8.429,0,0,0-3.273-7.027q-3.276-2.556-10.94-3.992l-28.586-5.59q-.641-.156-1.277-.319a30.167,30.167,0,0,0-3.993,7.347A22.19,22.19,0,0,0,226.043,267.322Zm22.677-45.514q6.708,0,9.822-5.19t3.114-16.688q0-11.337-3.034-16.289T249.2,178.69q-6.389,0-9.5,5.031t-3.114,16.528q0,11.5,2.875,16.529T248.72,221.808Z" fill="#fff"/>
      <path id="Path_12" data-name="Path 12" d="M298.7,253.429v-3.035l2.4-.8a6.839,6.839,0,0,0,4.391-2.715,9.549,9.549,0,0,0,1.2-5.111V194.979a11.467,11.467,0,0,0-1.277-5.349q-1.119-1.835-4.312-2.476l-2.4-.638v-2.875l26.031-9.262,1.916,1.756,1.437,14.053v1.119A37.767,37.767,0,0,1,334.157,183a33.778,33.778,0,0,1,7.985-6.228,17.621,17.621,0,0,1,8.624-2.4q6.068,0,9.1,3.193a11.357,11.357,0,0,1,3.034,8.145q0,5.432-3.034,8.224a10.446,10.446,0,0,1-7.346,2.795q-6.389,0-11.019-5.749l-.319-.319a5.535,5.535,0,0,0-3.594-2.156q-2-.24-3.912,2a21.241,21.241,0,0,0-2.954,3.753,29.357,29.357,0,0,0-2.476,5.03v41.841a9.142,9.142,0,0,0,1.278,5.03,6.917,6.917,0,0,0,4.311,2.795l4.791,1.437v3.035Z" fill="#fff"/>
      <path id="Path_13" data-name="Path 13" d="M396.758,255.664a27.18,27.18,0,0,1-11.338-2.315,17.22,17.22,0,0,1-8.065-7.666q-2.957-5.349-2.794-14.133l.479-40.084a9.107,9.107,0,0,0-1.119-5.111,6.328,6.328,0,0,0-3.992-2.235l-1.916-.639v-2.875l27.308-5.269,1.757,1.757-.8,22.516v36.252q0,5.43,2.954,7.9a11.154,11.154,0,0,0,7.427,2.476,24.489,24.489,0,0,0,8.383-1.357,35.11,35.11,0,0,0,7.746-4.073l.479-49.186q0-3.672-1.038-5.11a7,7,0,0,0-3.913-2.237l-1.756-.478v-2.875l26.669-5.589,1.757,1.757-.479,22.516v41.841a13.494,13.494,0,0,0,.878,5.351q.876,2,3.913,2.954l2.076.638v3.035l-26.989,1.6-1.437-10.06a53.48,53.48,0,0,1-11.818,7.665A33.117,33.117,0,0,1,396.758,255.664Z" fill="#fff"/>
      <path id="Path_14" data-name="Path 14" d="M484.431,255.505l-26.19-2.076v-3.035l1.6-.319q6.228-1.437,6.228-7.985V159.048a8.724,8.724,0,0,0-1.2-4.951,7.189,7.189,0,0,0-4.391-2.555l-2.077-.48v-2.874l27.309-6.867,2.076,1.438-.639,22.516v16.769a42.787,42.787,0,0,1,24.433-7.665,28.494,28.494,0,0,1,22.2,9.821q8.783,9.82,8.784,30.263,0,13.575-4.472,22.757a32.3,32.3,0,0,1-11.977,13.813,31.016,31.016,0,0,1-16.608,4.631,46.615,46.615,0,0,1-12.057-1.6,31.907,31.907,0,0,1-10.62-4.95ZM502,248.638a14.878,14.878,0,0,0,9.262-3.035q3.99-3.031,6.228-10.379t2.237-20.123q0-12.774-2.077-19.961t-5.989-10.062a15.348,15.348,0,0,0-9.342-2.874,30.26,30.26,0,0,0-14.692,4.151v58.29A27.067,27.067,0,0,0,502,248.638Z" fill="#fff"/>
      <path id="Path_15" data-name="Path 15" d="M575.618,255.505l-26.19-2.076v-3.035l1.6-.319q6.23-1.437,6.229-7.985V159.048a8.724,8.724,0,0,0-1.2-4.951,7.189,7.189,0,0,0-4.392-2.555l-2.076-.48v-2.874l27.309-6.867,2.076,1.438-.639,22.516v16.769a42.785,42.785,0,0,1,24.434-7.665,28.5,28.5,0,0,1,22.2,9.821q8.779,9.82,8.783,30.263,0,13.575-4.472,22.757A32.294,32.294,0,0,1,617.3,251.033a31.015,31.015,0,0,1-16.609,4.631,46.625,46.625,0,0,1-12.056-1.6,31.907,31.907,0,0,1-10.62-4.95Zm17.567-6.867a14.878,14.878,0,0,0,9.262-3.035q3.99-3.031,6.229-10.379t2.235-20.123q0-12.774-2.076-19.961t-5.988-10.062A15.357,15.357,0,0,0,593.5,182.2a30.26,30.26,0,0,0-14.692,4.151v58.29A27.067,27.067,0,0,0,593.185,248.638Z" fill="#fff"/>
      <path id="Path_16" data-name="Path 16" d="M681.813,174.379q10.062,0,17.248,4.151a28.648,28.648,0,0,1,11.1,11.419,34.649,34.649,0,0,1,3.913,16.689q0,2.076-.16,3.912a16.951,16.951,0,0,1-.639,3.433H665.205q.157,16.45,6.149,23.636T688.84,244.8q7.983,0,12.935-2.635a32.014,32.014,0,0,0,9.1-7.426l2.556,2.4a34.969,34.969,0,0,1-13.016,13.654q-8.226,4.869-19.563,4.87a40.435,40.435,0,0,1-19.962-4.79A33.745,33.745,0,0,1,647.4,237.059q-4.874-9.02-4.87-21.638,0-13.094,5.669-22.2a38.881,38.881,0,0,1,14.693-13.974A39.292,39.292,0,0,1,681.813,174.379Zm-.8,4.631a12.866,12.866,0,0,0-8.065,2.634q-3.437,2.636-5.429,9.263t-2.316,18.6h28.586q1.755-16.128-1.278-23.316T681.015,179.01Z" fill="#fff"/>
      <path id="Path_17" data-name="Path 17" d="M722.215,253.429v-3.035l2.395-.8A6.839,6.839,0,0,0,729,246.881a9.549,9.549,0,0,0,1.2-5.111V194.979a11.466,11.466,0,0,0-1.277-5.349q-1.119-1.835-4.313-2.476l-2.395-.638v-2.875l26.031-9.262,1.916,1.756,1.438,14.053v1.119A37.7,37.7,0,0,1,757.668,183a33.757,33.757,0,0,1,7.985-6.228,17.617,17.617,0,0,1,8.623-2.4q6.067,0,9.1,3.193a11.361,11.361,0,0,1,3.034,8.145q0,5.432-3.034,8.224a10.448,10.448,0,0,1-7.346,2.795q-6.39,0-11.019-5.749l-.32-.319a5.529,5.529,0,0,0-3.592-2.156q-2-.24-3.914,2a21.333,21.333,0,0,0-2.954,3.753,29.429,29.429,0,0,0-2.475,5.03v41.841a9.15,9.15,0,0,0,1.278,5.03,6.92,6.92,0,0,0,4.312,2.795l4.791,1.437v3.035Z" fill="#fff"/>
    </g>
    <g id="Group_21" data-name="Group 21">
      <path id="Path_18" data-name="Path 18" d="M404.542,284.71a2.575,2.575,0,0,0-.988-2.168A11.873,11.873,0,0,0,399.987,281a17.237,17.237,0,0,1-4.1-1.729,5.472,5.472,0,0,1-2.915-4.775,5.2,5.2,0,0,1,2.1-4.248,8.511,8.511,0,0,1,5.457-1.67,9.22,9.22,0,0,1,3.97.82,6.52,6.52,0,0,1,2.739,2.336,6,6,0,0,1,1,3.363h-3.692a3.341,3.341,0,0,0-1.047-2.615,4.317,4.317,0,0,0-2.995-.945,4.519,4.519,0,0,0-2.82.776,2.587,2.587,0,0,0-1,2.168,2.339,2.339,0,0,0,1.084,1.956,12.471,12.471,0,0,0,3.574,1.524,16.444,16.444,0,0,1,4,1.683,6.376,6.376,0,0,1,2.212,2.168,5.652,5.652,0,0,1,.7,2.865,5.078,5.078,0,0,1-2.044,4.241,8.86,8.86,0,0,1-5.544,1.574,10.411,10.411,0,0,1-4.256-.857,7.139,7.139,0,0,1-3.017-2.366,5.89,5.89,0,0,1-1.077-3.515h3.706a3.448,3.448,0,0,0,1.2,2.812,5.263,5.263,0,0,0,3.443,1,4.564,4.564,0,0,0,2.907-.783A2.527,2.527,0,0,0,404.542,284.71Z" fill="#fff"/>
      <path id="Path_19" data-name="Path 19" d="M415.617,270.5v3.852h2.8v2.637h-2.8v8.848a1.939,1.939,0,0,0,.359,1.31,1.657,1.657,0,0,0,1.281.4,5.46,5.46,0,0,0,1.245-.147v2.754a8.743,8.743,0,0,1-2.343.337q-4.1,0-4.1-4.526v-8.98H409.45v-2.637h2.607V270.5Z" fill="#fff"/>
      <path id="Path_20" data-name="Path 20" d="M430.6,290.2a5.5,5.5,0,0,1-.41-1.479,5.989,5.989,0,0,1-8.057.41,4.359,4.359,0,0,1-1.509-3.369,4.5,4.5,0,0,1,1.883-3.89,9.131,9.131,0,0,1,5.383-1.355h2.183v-1.04a2.778,2.778,0,0,0-.689-1.97,2.733,2.733,0,0,0-2.094-.74,3.14,3.14,0,0,0-1.993.609,1.882,1.882,0,0,0-.776,1.545h-3.56a3.952,3.952,0,0,1,.865-2.44,5.766,5.766,0,0,1,2.351-1.779,8.252,8.252,0,0,1,3.318-.645,6.652,6.652,0,0,1,4.438,1.4,4.989,4.989,0,0,1,1.7,3.934v7.148a8.092,8.092,0,0,0,.6,3.413v.249Zm-3.911-2.563a4.048,4.048,0,0,0,1.985-.513,3.432,3.432,0,0,0,1.4-1.377v-2.988h-1.919a5.247,5.247,0,0,0-2.974.688,2.231,2.231,0,0,0-1,1.948,2.077,2.077,0,0,0,.681,1.633A2.635,2.635,0,0,0,426.691,287.64Z" fill="#fff"/>
      <path id="Path_21" data-name="Path 21" d="M442.907,285.105l3.222-10.752h3.794l-6.3,18.252q-1.451,4-4.922,4a6.328,6.328,0,0,1-1.714-.264v-2.768l.674.044a3.471,3.471,0,0,0,2.028-.49,3.248,3.248,0,0,0,1.077-1.647l.513-1.361-5.567-15.765h3.838Z" fill="#fff"/>
      <path id="Path_22" data-name="Path 22" d="M465.949,287.654a3.222,3.222,0,0,0,2.212-.776,2.652,2.652,0,0,0,.937-1.919h3.355a5.235,5.235,0,0,1-.923,2.762,6.057,6.057,0,0,1-2.344,2.028,6.984,6.984,0,0,1-3.193.747,6.76,6.76,0,0,1-5.274-2.153,8.541,8.541,0,0,1-1.948-5.948v-.366a8.4,8.4,0,0,1,1.934-5.793,6.693,6.693,0,0,1,5.273-2.176,6.507,6.507,0,0,1,4.607,1.649,5.9,5.9,0,0,1,1.868,4.328H469.1a3.259,3.259,0,0,0-.93-2.241,2.993,2.993,0,0,0-2.219-.879,3.129,3.129,0,0,0-2.666,1.253,6.381,6.381,0,0,0-.952,3.8v.571a6.5,6.5,0,0,0,.93,3.845A3.129,3.129,0,0,0,465.949,287.654Z" fill="#fff"/>
      <path id="Path_23" data-name="Path 23" d="M474.474,282.132a9.349,9.349,0,0,1,.923-4.2,6.73,6.73,0,0,1,2.593-2.871,7.3,7.3,0,0,1,3.838-1,6.923,6.923,0,0,1,5.207,2.066A8.126,8.126,0,0,1,489.2,281.6l.014.835a9.439,9.439,0,0,1-.9,4.19,6.66,6.66,0,0,1-2.579,2.856,7.355,7.355,0,0,1-3.874,1.011,6.874,6.874,0,0,1-5.369-2.234,8.558,8.558,0,0,1-2.014-5.954Zm3.56.307a6.386,6.386,0,0,0,1.01,3.83,3.285,3.285,0,0,0,2.813,1.385,3.251,3.251,0,0,0,2.8-1.406,7.055,7.055,0,0,0,1-4.116,6.309,6.309,0,0,0-1.033-3.809,3.482,3.482,0,0,0-5.574-.022A6.92,6.92,0,0,0,478.034,282.439Z" fill="#fff"/>
      <path id="Path_24" data-name="Path 24" d="M495.524,274.353l.1,1.831a5.7,5.7,0,0,1,4.615-2.124q4.95,0,5.038,5.669V290.2H501.72V279.934a3.26,3.26,0,0,0-.652-2.233,2.739,2.739,0,0,0-2.131-.725,3.429,3.429,0,0,0-3.208,1.948V290.2h-3.56v-15.85Z" fill="#fff"/>
      <path id="Path_25" data-name="Path 25" d="M512.208,274.353l.1,1.831a5.7,5.7,0,0,1,4.614-2.124q4.952,0,5.039,5.669V290.2H518.4V279.934a3.26,3.26,0,0,0-.651-2.233,2.743,2.743,0,0,0-2.132-.725,3.43,3.43,0,0,0-3.208,1.948V290.2h-3.559v-15.85Z" fill="#fff"/>
      <path id="Path_26" data-name="Path 26" d="M532.569,290.5a7.365,7.365,0,0,1-5.485-2.131,7.736,7.736,0,0,1-2.1-5.677v-.439a9.52,9.52,0,0,1,.916-4.241,6.973,6.973,0,0,1,2.571-2.907,6.79,6.79,0,0,1,3.691-1.041,6.223,6.223,0,0,1,5,2.066,8.732,8.732,0,0,1,1.765,5.845v1.435H528.57a4.762,4.762,0,0,0,1.312,3.106,3.935,3.935,0,0,0,2.892,1.142,4.822,4.822,0,0,0,3.985-1.977l1.919,1.831a6.419,6.419,0,0,1-2.541,2.205A7.98,7.98,0,0,1,532.569,290.5Zm-.424-13.579a3,3,0,0,0-2.366,1.025,5.322,5.322,0,0,0-1.15,2.857h6.782v-.264a4.327,4.327,0,0,0-.952-2.7A2.979,2.979,0,0,0,532.145,276.917Z" fill="#fff"/>
      <path id="Path_27" data-name="Path 27" d="M548.2,287.654a3.221,3.221,0,0,0,2.212-.776,2.653,2.653,0,0,0,.938-1.919H554.7a5.235,5.235,0,0,1-.923,2.762,6.054,6.054,0,0,1-2.343,2.028,6.988,6.988,0,0,1-3.194.747,6.758,6.758,0,0,1-5.273-2.153,8.542,8.542,0,0,1-1.949-5.948v-.366a8.4,8.4,0,0,1,1.934-5.793,6.7,6.7,0,0,1,5.274-2.176,6.509,6.509,0,0,1,4.607,1.649,5.9,5.9,0,0,1,1.867,4.328h-3.354a3.259,3.259,0,0,0-.93-2.241,2.993,2.993,0,0,0-2.22-.879,3.131,3.131,0,0,0-2.666,1.253,6.388,6.388,0,0,0-.952,3.8v.571a6.494,6.494,0,0,0,.931,3.845A3.127,3.127,0,0,0,548.2,287.654Z" fill="#fff"/>
      <path id="Path_28" data-name="Path 28" d="M561.852,270.5v3.852h2.8v2.637h-2.8v8.848a1.945,1.945,0,0,0,.359,1.31,1.657,1.657,0,0,0,1.281.4,5.466,5.466,0,0,0,1.245-.147v2.754a8.742,8.742,0,0,1-2.343.337q-4.1,0-4.1-4.526v-8.98h-2.607v-2.637h2.607V270.5Z" fill="#fff"/>
      <path id="Path_29" data-name="Path 29" d="M574.347,290.5a7.369,7.369,0,0,1-5.486-2.131,7.735,7.735,0,0,1-2.1-5.677v-.439a9.506,9.506,0,0,1,.916-4.241,6.97,6.97,0,0,1,2.57-2.907,6.794,6.794,0,0,1,3.692-1.041,6.22,6.22,0,0,1,5,2.066,8.732,8.732,0,0,1,1.765,5.845v1.435H570.348a4.762,4.762,0,0,0,1.311,3.106,3.939,3.939,0,0,0,2.893,1.142,4.819,4.819,0,0,0,3.984-1.977l1.919,1.831a6.413,6.413,0,0,1-2.541,2.205A7.979,7.979,0,0,1,574.347,290.5Zm-.425-13.579a3,3,0,0,0-2.365,1.025,5.314,5.314,0,0,0-1.151,2.857h6.782v-.264a4.327,4.327,0,0,0-.952-2.7A2.978,2.978,0,0,0,573.922,276.917Z" fill="#fff"/>
      <path id="Path_30" data-name="Path 30" d="M582.8,282.161a9.428,9.428,0,0,1,1.7-5.882,5.448,5.448,0,0,1,4.556-2.219,5.173,5.173,0,0,1,4.072,1.758V267.7h3.56v22.5h-3.223l-.176-1.641a5.247,5.247,0,0,1-4.263,1.934,5.412,5.412,0,0,1-4.5-2.241A9.766,9.766,0,0,1,582.8,282.161Zm3.559.308a6.593,6.593,0,0,0,.931,3.771,3.017,3.017,0,0,0,2.644,1.356,3.362,3.362,0,0,0,3.193-1.949V278.88a3.309,3.309,0,0,0-3.164-1.9,3.041,3.041,0,0,0-2.666,1.37A7.344,7.344,0,0,0,586.358,282.469Z" fill="#fff"/>
      <path id="Path_31" data-name="Path 31" d="M600.9,295.008l-1.919-1.143a10.322,10.322,0,0,0,1.165-2.322,6.893,6.893,0,0,0,.329-2.014v-2.768h3.209l-.015,2.563a7.161,7.161,0,0,1-.783,3.113A7.746,7.746,0,0,1,600.9,295.008Z" fill="#fff"/>
      <path id="Path_32" data-name="Path 32" d="M617.765,274.353l.1,1.831a5.7,5.7,0,0,1,4.614-2.124q4.951,0,5.04,5.669V290.2h-3.56V279.934a3.265,3.265,0,0,0-.651-2.233,2.743,2.743,0,0,0-2.132-.725,3.429,3.429,0,0,0-3.208,1.948V290.2h-3.56v-15.85Z" fill="#fff"/>
      <path id="Path_33" data-name="Path 33" d="M630.479,282.132a9.349,9.349,0,0,1,.923-4.2,6.743,6.743,0,0,1,2.593-2.871,7.306,7.306,0,0,1,3.838-1,6.924,6.924,0,0,1,5.208,2.066,8.121,8.121,0,0,1,2.16,5.478l.015.835a9.426,9.426,0,0,1-.9,4.19,6.658,6.658,0,0,1-2.578,2.856,7.358,7.358,0,0,1-3.875,1.011,6.872,6.872,0,0,1-5.368-2.234,8.554,8.554,0,0,1-2.015-5.954Zm3.56.307a6.379,6.379,0,0,0,1.011,3.83,3.525,3.525,0,0,0,5.618-.021,7.056,7.056,0,0,0,1-4.116,6.308,6.308,0,0,0-1.032-3.809,3.482,3.482,0,0,0-5.575-.022A6.926,6.926,0,0,0,634.039,282.439Z" fill="#fff"/>
      <path id="Path_34" data-name="Path 34" d="M652.687,270.5v3.852h2.8v2.637h-2.8v8.848a1.945,1.945,0,0,0,.359,1.31,1.657,1.657,0,0,0,1.281.4,5.466,5.466,0,0,0,1.245-.147v2.754a8.748,8.748,0,0,1-2.343.337q-4.1,0-4.1-4.526v-8.98H646.52v-2.637h2.607V270.5Z" fill="#fff"/>
      <path id="Path_35" data-name="Path 35" d="M669.181,276.082a5.571,5.571,0,0,1,4.409-2.022q5.068,0,5.141,5.787V290.2h-3.559V279.978a3.131,3.131,0,0,0-.71-2.322,2.911,2.911,0,0,0-2.088-.68,3.427,3.427,0,0,0-3.193,1.9V290.2h-3.56V267.7h3.56Z" fill="#fff"/>
      <path id="Path_36" data-name="Path 36" d="M691.93,288.65a5.52,5.52,0,0,1-4.453,1.846,4.92,4.92,0,0,1-3.9-1.509,6.418,6.418,0,0,1-1.326-4.365V274.353h3.56v10.225q0,3.018,2.505,3.018a3.518,3.518,0,0,0,3.5-1.861V274.353h3.559V290.2h-3.354Z" fill="#fff"/>
      <path id="Path_37" data-name="Path 37" d="M702.3,274.353l.1,1.831a5.7,5.7,0,0,1,4.615-2.124q4.95,0,5.039,5.669V290.2H708.5V279.934a3.265,3.265,0,0,0-.651-2.233,2.743,2.743,0,0,0-2.132-.725,3.429,3.429,0,0,0-3.208,1.948V290.2h-3.56v-15.85Z" fill="#fff"/>
      <path id="Path_38" data-name="Path 38" d="M715.06,282.161a9.266,9.266,0,0,1,1.736-5.9,5.57,5.57,0,0,1,4.606-2.206,5.219,5.219,0,0,1,4.263,1.89l.161-1.6h3.208V289.72a6.388,6.388,0,0,1-1.94,4.922,7.4,7.4,0,0,1-5.238,1.8,8.462,8.462,0,0,1-3.405-.724,6.071,6.071,0,0,1-2.527-1.9l1.684-2.138a5.091,5.091,0,0,0,4.043,1.948,3.938,3.938,0,0,0,2.8-.959,3.679,3.679,0,0,0,1.026-2.821v-1.069a5.241,5.241,0,0,1-4.1,1.714,5.557,5.557,0,0,1-4.548-2.212A9.57,9.57,0,0,1,715.06,282.161Zm3.544.308a6.385,6.385,0,0,0,.975,3.757,3.131,3.131,0,0,0,2.7,1.37,3.428,3.428,0,0,0,3.194-1.846v-6.973a3.377,3.377,0,0,0-3.164-1.8,3.144,3.144,0,0,0-2.732,1.391A7.149,7.149,0,0,0,718.6,282.469Z" fill="#fff"/>
      <path id="Path_39" data-name="Path 39" d="M740.987,277.605a8.814,8.814,0,0,0-1.45-.117,3.266,3.266,0,0,0-3.3,1.875V290.2h-3.559v-15.85h3.4l.088,1.773a4.011,4.011,0,0,1,3.574-2.066,3.326,3.326,0,0,1,1.26.206Z" fill="#fff"/>
      <path id="Path_40" data-name="Path 40" d="M748.78,285.105,752,274.353H755.8l-6.3,18.252q-1.45,4-4.922,4a6.334,6.334,0,0,1-1.714-.264v-2.768l.674.044a3.472,3.472,0,0,0,2.029-.49,3.248,3.248,0,0,0,1.077-1.647l.512-1.361-5.566-15.765h3.838Z" fill="#fff"/>
      <path id="Path_41" data-name="Path 41" d="M760.06,286.453a2.035,2.035,0,0,1,1.538.565,1.956,1.956,0,0,1,.542,1.413,1.888,1.888,0,0,1-.542,1.383,2.4,2.4,0,0,1-3.047.008,1.857,1.857,0,0,1-.557-1.391,1.956,1.956,0,0,1,.542-1.413A2.014,2.014,0,0,1,760.06,286.453Z" fill="#fff"/>
    </g>
  </g>
</svg>
