<svg id="Component_1_1" data-name="Component 1 – 1" xmlns="http://www.w3.org/2000/svg" width="167.942" height="43.683" viewBox="0 0 167.942 43.683">
  <path id="Path_1" data-name="Path 1" d="M223.981,192.578a12.4,12.4,0,0,1-5.291-1.03v1.686a1.563,1.563,0,0,0,1.4,1.686l8.334,1.545a27.192,27.192,0,0,1,4.214,1.147,6.607,6.607,0,0,1,2.856,1.92,5.08,5.08,0,0,1,1.03,3.348,6.8,6.8,0,0,1-1.475,4.19,10.216,10.216,0,0,1-4.354,3.137,18.845,18.845,0,0,1-7.187,1.194,18.083,18.083,0,0,1-5.876-.772,6.6,6.6,0,0,1-3.114-1.99,4.215,4.215,0,0,1-.936-2.622,5.954,5.954,0,0,1,1.147-3.371,9.668,9.668,0,0,1,2.973-2.809q-2.856-1.077-2.856-3.418a3.288,3.288,0,0,1,.421-1.639,10.743,10.743,0,0,1,1.03-1.5l1.686-2.107a6.6,6.6,0,0,1-3.371-6.133,6.984,6.984,0,0,1,2.411-5.525q2.411-2.106,6.953-2.106T231,179.515a13.208,13.208,0,0,0,2.809-.749,9.494,9.494,0,0,0,2.435-1.4l.656.468v2.622h-5.057a7.116,7.116,0,0,1,1.5,4.588,6.882,6.882,0,0,1-2.411,5.431Q228.522,192.578,223.981,192.578Zm-6.742,12.08a4.611,4.611,0,0,0,1.639,3.863q1.638,1.288,5.2,1.288,3.933,0,5.829-1.288a3.933,3.933,0,0,0,1.9-3.394,2.47,2.47,0,0,0-.96-2.06,7.673,7.673,0,0,0-3.207-1.171l-8.381-1.639-.374-.094a8.845,8.845,0,0,0-1.171,2.154A6.507,6.507,0,0,0,217.239,204.658Zm6.648-13.344a3.113,3.113,0,0,0,2.88-1.522,9.9,9.9,0,0,0,.913-4.893,9.571,9.571,0,0,0-.889-4.776,3.012,3.012,0,0,0-2.763-1.452,3.052,3.052,0,0,0-2.786,1.475,9.617,9.617,0,0,0-.913,4.846,10.3,10.3,0,0,0,.843,4.846A2.892,2.892,0,0,0,223.887,191.314Z" transform="translate(-213.587 -167.717)" fill="#4a31c1"/>
  <path id="Path_2" data-name="Path 2" d="M298.7,200.7v-.89l.7-.234a2.005,2.005,0,0,0,1.287-.8,2.8,2.8,0,0,0,.351-1.5V183.562a3.362,3.362,0,0,0-.374-1.568,1.805,1.805,0,0,0-1.264-.726l-.7-.187v-.843l7.632-2.715.562.515.421,4.12v.328a11.073,11.073,0,0,1,1.779-2.435,9.9,9.9,0,0,1,2.341-1.826,5.166,5.166,0,0,1,2.528-.7,3.516,3.516,0,0,1,2.669.936,3.33,3.33,0,0,1,.889,2.388,3.116,3.116,0,0,1-.889,2.411,3.063,3.063,0,0,1-2.154.819,4.042,4.042,0,0,1-3.231-1.686l-.094-.094a1.623,1.623,0,0,0-1.054-.632,1.329,1.329,0,0,0-1.147.585,6.231,6.231,0,0,0-.866,1.1,8.606,8.606,0,0,0-.726,1.475v12.267a2.68,2.68,0,0,0,.375,1.475,2.028,2.028,0,0,0,1.264.819l1.4.422v.89Z" transform="translate(-273.749 -167.83)" fill="#4a31c1"/>
  <path id="Path_3" data-name="Path 3" d="M376.44,202.03a7.969,7.969,0,0,1-3.324-.679,5.049,5.049,0,0,1-2.365-2.247,8.232,8.232,0,0,1-.819-4.144l.14-11.752a2.67,2.67,0,0,0-.328-1.5,1.855,1.855,0,0,0-1.17-.655l-.562-.187v-.843l8.006-1.545.515.515-.234,6.6v10.628a2.858,2.858,0,0,0,.866,2.318,3.272,3.272,0,0,0,2.177.726,7.18,7.18,0,0,0,2.458-.4,10.294,10.294,0,0,0,2.271-1.194l.14-14.42a2.688,2.688,0,0,0-.3-1.5,2.051,2.051,0,0,0-1.147-.656l-.515-.14v-.843l7.819-1.639.515.515-.14,6.6v12.267a3.956,3.956,0,0,0,.257,1.569,1.713,1.713,0,0,0,1.147.866l.609.187v.89l-7.913.468-.421-2.949a15.679,15.679,0,0,1-3.465,2.247A9.709,9.709,0,0,1,376.44,202.03Z" transform="translate(-322.738 -168.507)" fill="#4a31c1"/>
  <path id="Path_4" data-name="Path 4" d="M465.919,177.941l-7.678-.609v-.89l.468-.094a2.161,2.161,0,0,0,1.826-2.341V149.661a2.558,2.558,0,0,0-.351-1.452,2.108,2.108,0,0,0-1.287-.749l-.609-.141v-.843l8.006-2.013.609.422-.187,6.6V156.4a12.547,12.547,0,0,1,7.163-2.247,8.354,8.354,0,0,1,6.508,2.879q2.575,2.879,2.575,8.873a15.181,15.181,0,0,1-1.311,6.672,9.47,9.47,0,0,1-3.511,4.05,9.093,9.093,0,0,1-4.869,1.358,13.666,13.666,0,0,1-3.535-.468,9.349,9.349,0,0,1-3.114-1.451Zm5.15-2.013a4.362,4.362,0,0,0,2.715-.89,5.833,5.833,0,0,0,1.826-3.043,21.046,21.046,0,0,0,.656-5.9,22.067,22.067,0,0,0-.609-5.852,5.382,5.382,0,0,0-1.756-2.95,4.5,4.5,0,0,0-2.739-.843,8.872,8.872,0,0,0-4.307,1.217v17.09A7.936,7.936,0,0,0,471.07,175.927Z" transform="translate(-386.513 -144.464)" fill="#4a31c1"/>
  <path id="Path_5" data-name="Path 5" d="M557.106,177.941l-7.678-.609v-.89l.468-.094a2.161,2.161,0,0,0,1.826-2.341V149.661a2.558,2.558,0,0,0-.351-1.452,2.107,2.107,0,0,0-1.288-.749l-.609-.141v-.843l8.006-2.013.609.422-.187,6.6V156.4a12.546,12.546,0,0,1,7.164-2.247,8.354,8.354,0,0,1,6.508,2.879q2.574,2.879,2.575,8.873a15.178,15.178,0,0,1-1.311,6.672,9.468,9.468,0,0,1-3.511,4.05,9.093,9.093,0,0,1-4.869,1.358,13.669,13.669,0,0,1-3.535-.468,9.349,9.349,0,0,1-3.114-1.451Zm5.15-2.013a4.362,4.362,0,0,0,2.715-.89,5.833,5.833,0,0,0,1.826-3.043,21.074,21.074,0,0,0,.655-5.9,22.054,22.054,0,0,0-.609-5.852,5.385,5.385,0,0,0-1.756-2.95,4.5,4.5,0,0,0-2.739-.843,8.871,8.871,0,0,0-4.307,1.217v17.09A7.935,7.935,0,0,0,562.257,175.927Z" transform="translate(-450.966 -144.464)" fill="#4a31c1"/>
  <path id="Path_6" data-name="Path 6" d="M654.046,177.522a9.949,9.949,0,0,1,5.057,1.217,8.4,8.4,0,0,1,3.254,3.348,10.159,10.159,0,0,1,1.147,4.893q0,.609-.047,1.147a4.966,4.966,0,0,1-.187,1.006H649.177q.046,4.823,1.8,6.93a6.294,6.294,0,0,0,5.127,2.107,8.063,8.063,0,0,0,3.792-.773,9.386,9.386,0,0,0,2.669-2.177l.749.7a10.252,10.252,0,0,1-3.816,4,11.058,11.058,0,0,1-5.735,1.428,11.855,11.855,0,0,1-5.853-1.4,9.9,9.9,0,0,1-3.956-4.05,13.173,13.173,0,0,1-1.428-6.344,12.076,12.076,0,0,1,1.662-6.508,11.4,11.4,0,0,1,4.308-4.1A11.52,11.52,0,0,1,654.046,177.522Zm-.234,1.358a3.77,3.77,0,0,0-2.365.773,5.22,5.22,0,0,0-1.592,2.715,21.783,21.783,0,0,0-.679,5.455h8.381q.515-4.728-.375-6.836A3.331,3.331,0,0,0,653.812,178.88Z" transform="translate(-516.771 -167.83)" fill="#4a31c1"/>
  <path id="Path_7" data-name="Path 7" d="M722.215,200.7v-.89l.7-.234a2,2,0,0,0,1.288-.8,2.8,2.8,0,0,0,.351-1.5V183.562a3.362,3.362,0,0,0-.374-1.568,1.8,1.8,0,0,0-1.264-.726l-.7-.187v-.843l7.632-2.715.562.515.422,4.12v.328a11.054,11.054,0,0,1,1.779-2.435,9.9,9.9,0,0,1,2.341-1.826,5.165,5.165,0,0,1,2.528-.7,3.517,3.517,0,0,1,2.669.936,3.331,3.331,0,0,1,.89,2.388,3.117,3.117,0,0,1-.89,2.411,3.063,3.063,0,0,1-2.154.819,4.041,4.041,0,0,1-3.231-1.686l-.094-.094a1.621,1.621,0,0,0-1.053-.632,1.33,1.33,0,0,0-1.148.585,6.259,6.259,0,0,0-.866,1.1,8.626,8.626,0,0,0-.726,1.475v12.267a2.682,2.682,0,0,0,.375,1.475,2.029,2.029,0,0,0,1.264.819l1.4.422v.89Z" transform="translate(-573.095 -167.83)" fill="#4a31c1"/>
</svg>
