<svg xmlns="http://www.w3.org/2000/svg" width="29.765" height="23.147" viewBox="0 0 29.765 23.147">
  <path id="Icon_awesome-home" data-name="Icon awesome-home" d="M14.487,8.258,4.96,16.1v8.469a.827.827,0,0,0,.827.827l5.79-.015a.827.827,0,0,0,.823-.827V19.613a.827.827,0,0,1,.827-.827h3.307a.827.827,0,0,1,.827.827v4.942a.827.827,0,0,0,.827.829l5.788.016a.827.827,0,0,0,.827-.827V16.1L15.278,8.258A.63.63,0,0,0,14.487,8.258Zm15.048,5.333-4.32-3.561V2.874a.62.62,0,0,0-.62-.62H21.7a.62.62,0,0,0-.62.62V6.625L16.456,2.819a2.48,2.48,0,0,0-3.152,0L.224,13.591a.62.62,0,0,0-.083.873l1.318,1.6a.62.62,0,0,0,.874.084L14.487,6.14a.63.63,0,0,1,.791,0L27.432,16.151a.62.62,0,0,0,.873-.083l1.318-1.6a.62.62,0,0,0-.088-.875Z" transform="translate(0.001 -2.254)" fill="#4a31c1"/>
</svg>
